# xmcd
# 
# Track frame offsets:
#     150
#     14610
#     26010
#     39660
#     50497
#     68887
#     82537
#     97462
#     112837
#     133845
#     146100
#     163275
#     179505
#     197955
# 
# Disc length: 2825
# 
# Revision: 1
# Processed by: cddbd v1.5.2PL0 Copyright (c) Steve Scherf et al.
# Submitted via: fre:ac v1.0.31
# 
DISCID=cf0b070e
DTITLE=Waylon Jennings - Lost Nashville Sessions
DYEAR=2016
DGENRE=Country
TTITLE0=Only Daddy That'll Walk The Line
TTITLE1=The Chokin' Kind
TTITLE2=Stop The World
TTITLE3=Anita, Your Dreaming
TTITLE4=Just To Satisfy You
TTITLE5=Green River
TTITLE6=Singer Of Sad Songs
TTITLE7=Love Of The Common People
TTITLE8=MacArthur Park
TTITLE9=Brown Eyed Handsome Man
TTITLE10=Mental Revenge
TTITLE11=Time To Bum Again
TTITLE12=Sunday Mornin' Comin' Down
TTITLE13=Young Widow Brown
EXTD=
EXTT0=
EXTT1=
EXTT2=
EXTT3=
EXTT4=
EXTT5=
EXTT6=
EXTT7=
EXTT8=
EXTT9=
EXTT10=
EXTT11=
EXTT12=
EXTT13=
PLAYORDER=
